<?xml version="1.0" encoding="UTF-8" standalone="no"?>
<svg
   xmlns:dc="http://purl.org/dc/elements/1.1/"
   xmlns:cc="http://creativecommons.org/ns#"
   xmlns:rdf="http://www.w3.org/1999/02/22-rdf-syntax-ns#"
   xmlns:svg="http://www.w3.org/2000/svg"
   xmlns="http://www.w3.org/2000/svg"
   xmlns:sodipodi="http://sodipodi.sourceforge.net/DTD/sodipodi-0.dtd"
   xmlns:inkscape="http://www.inkscape.org/namespaces/inkscape"
   id="Layer_4"
   viewBox="0 0 839 200"
   version="1.1"
   inkscape:version="0.48.5 r10040"
   width="100%"
   height="100%"
   sodipodi:docname="logo-white.svg">
  <metadata
     id="metadata35">
    <rdf:RDF>
      <cc:Work
         rdf:about="">
        <dc:format>image/svg+xml</dc:format>
        <dc:type
           rdf:resource="http://purl.org/dc/dcmitype/StillImage" />
      </cc:Work>
    </rdf:RDF>
  </metadata>
  <defs
     id="defs33" />
  <sodipodi:namedview
     pagecolor="#ffffff"
     bordercolor="#666666"
     borderopacity="1"
     objecttolerance="10"
     gridtolerance="10"
     guidetolerance="10"
     inkscape:pageopacity="0"
     inkscape:pageshadow="2"
     inkscape:window-width="1440"
     inkscape:window-height="851"
     id="namedview31"
     showgrid="false"
     inkscape:zoom="0.3909416"
     inkscape:cx="98.480183"
     inkscape:cy="100"
     inkscape:window-x="0"
     inkscape:window-y="1"
     inkscape:window-maximized="1"
     inkscape:current-layer="Layer_4" />
  <style
     id="style3">.st0{fill:#FFFFFF;}</style>
  <g
     id="XMLID_7_"
     transform="translate(0,51.35)">
    <path
       id="XMLID_2_"
       class="st0"
       d="m 275.5,51.8 c 0,10.9 -3.2,19.7 -9.7,26.1 -7.4,7.7 -17,11.6 -28.8,11.6 -11.3,0 -20.9,-3.9 -28.8,-11.8 -7.9,-7.8 -11.9,-17.6 -11.9,-29.1 0,-11.5 4,-21.3 11.9,-29.1 7.9,-7.8 17.5,-11.8 28.8,-11.8 5.6,0 11,1.1 16.1,3.3 5.1,2.2 9.2,5.1 12.2,8.8 l -6.9,6.9 c -5.2,-6.2 -12.3,-9.3 -21.4,-9.3 -8.2,0 -15.4,2.9 -21.4,8.7 -6,5.8 -9,13.3 -9,22.6 0,9.3 3,16.8 9,22.6 6,5.8 13.1,8.7 21.4,8.7 8.8,0 16,-2.9 21.9,-8.8 3.8,-3.8 6,-9.1 6.6,-15.9 H 237 v -9.4 h 38 c 0.3,2.1 0.5,4 0.5,5.9 z"
       inkscape:connector-curvature="0"
       style="fill:#ffffff" />
    <path
       id="XMLID_4_"
       class="st0"
       d="M 285.4,87.8 V 9.5 h 24 c 12,0 21.7,3.6 28.9,10.9 7.2,7.3 10.8,16.7 10.8,28.3 0,11.6 -3.6,21 -10.8,28.3 -7.2,7.3 -16.8,10.9 -28.9,10.9 h -24 z m 10.1,-9.6 h 13.9 c 9,0 16.2,-2.6 21.5,-7.8 5.3,-5.2 7.9,-12.4 7.9,-21.8 0,-9.3 -2.6,-16.5 -7.9,-21.7 -5.3,-5.2 -12.5,-7.8 -21.5,-7.8 h -13.9 v 59.1 z"
       inkscape:connector-curvature="0"
       style="fill:#ffffff" />
    <path
       id="XMLID_8_"
       class="st0"
       d="m 434.5,51.8 c 0,10.9 -3.2,19.7 -9.7,26.1 -7.4,7.7 -17,11.6 -28.8,11.6 -11.3,0 -20.9,-3.9 -28.8,-11.8 -7.9,-7.8 -11.9,-17.6 -11.9,-29.1 0,-11.5 4,-21.3 11.9,-29.1 7.9,-7.8 17.5,-11.8 28.8,-11.8 5.6,0 11,1.1 16.1,3.3 5.1,2.2 9.2,5.1 12.2,8.8 l -6.9,6.9 c -5.2,-6.2 -12.3,-9.3 -21.4,-9.3 -8.2,0 -15.4,2.9 -21.4,8.7 -6,5.8 -9,13.3 -9,22.6 0,9.3 3,16.8 9,22.6 6,5.8 13.1,8.7 21.4,8.7 8.8,0 16,-2.9 21.9,-8.8 3.8,-3.8 6,-9.1 6.6,-15.9 H 396 v -9.4 h 38 c 0.3,2.1 0.5,4 0.5,5.9 z"
       inkscape:connector-curvature="0"
       style="fill:#ffffff" />
    <path
       id="XMLID_10_"
       class="st0"
       d="M 470.8,87.8 V 9.5 h 24 c 12,0 21.7,3.6 28.9,10.9 7.2,7.3 10.8,16.7 10.8,28.3 0,11.6 -3.6,21 -10.8,28.3 -7.2,7.3 -16.8,10.9 -28.9,10.9 h -24 z m 10.1,-9.6 h 13.9 c 9,0 16.2,-2.6 21.5,-7.8 5.3,-5.2 7.9,-12.4 7.9,-21.8 0,-9.3 -2.6,-16.5 -7.9,-21.7 -5.3,-5.2 -12.5,-7.8 -21.5,-7.8 h -13.9 v 59.1 z"
       inkscape:connector-curvature="0"
       style="fill:#ffffff" />
    <path
       id="XMLID_13_"
       class="st0"
       d="m 567.4,89.6 c -8.1,0 -14.7,-2.7 -19.7,-8.1 -5.1,-5.4 -7.6,-12.2 -7.6,-20.5 0,-7.8 2.5,-14.5 7.4,-20.1 4.9,-5.6 11.2,-8.4 18.9,-8.4 7.9,0 14.3,2.6 19.1,7.8 4.8,5.2 7.2,12.1 7.2,20.8 l -0.1,1.9 h -42.3 c 0.3,5.4 2.1,9.7 5.4,12.8 3.3,3.1 7.2,4.7 11.6,4.7 7.2,0 12.1,-3.1 14.7,-9.2 l 9,3.7 c -1.8,4.2 -4.6,7.6 -8.6,10.4 -4.2,2.8 -9.1,4.2 -15,4.2 z m 14.5,-35 c -0.2,-3.1 -1.6,-6 -4.2,-8.8 -2.6,-2.8 -6.4,-4.2 -11.5,-4.2 -3.7,0 -6.9,1.2 -9.7,3.5 -2.7,2.3 -4.6,5.5 -5.6,9.4 h 31 z"
       inkscape:connector-curvature="0"
       style="fill:#ffffff" />
    <path
       id="XMLID_16_"
       class="st0"
       d="M 613.7,87.8 592,34.2 h 11 l 15.8,41.6 h 0.2 l 16,-41.6 h 10.7 l -21.9,53.6 h -10.1 z"
       inkscape:connector-curvature="0"
       style="fill:#ffffff" />
    <path
       id="XMLID_18_"
       class="st0"
       d="M 661.6,87.8 H 651.5 V 9.5 h 45.7 v 9.6 h -35.7 v 25.7 h 32.2 v 9.4 h -32.2 v 33.6 z"
       inkscape:connector-curvature="0"
       style="fill:#ffffff" />
    <path
       id="XMLID_20_"
       class="st0"
       d="m 727.7,89.6 c -8.1,0 -14.7,-2.7 -19.7,-8.1 -5.1,-5.4 -7.6,-12.2 -7.6,-20.5 0,-7.8 2.5,-14.5 7.4,-20.1 4.9,-5.6 11.2,-8.4 18.9,-8.4 7.9,0 14.3,2.6 19.1,7.8 4.8,5.2 7.2,12.1 7.2,20.8 l -0.1,1.9 h -42.3 c 0.3,5.4 2.1,9.7 5.4,12.8 3.3,3.1 7.2,4.7 11.6,4.7 7.2,0 12.1,-3.1 14.7,-9.2 l 9,3.7 c -1.8,4.2 -4.6,7.6 -8.6,10.4 -4.3,2.8 -9.2,4.2 -15,4.2 z m 14.4,-35 c -0.2,-3.1 -1.6,-6 -4.2,-8.8 -2.6,-2.8 -6.4,-4.2 -11.5,-4.2 -3.7,0 -6.9,1.2 -9.7,3.5 -2.7,2.3 -4.6,5.5 -5.6,9.4 h 31 z"
       inkscape:connector-curvature="0"
       style="fill:#ffffff" />
    <path
       id="XMLID_27_"
       class="st0"
       d="m 779.5,89.6 c -6,0 -10.9,-1.5 -14.8,-4.4 -3.9,-2.9 -6.8,-6.6 -8.6,-10.9 l 9,-3.7 c 2.8,6.7 7.7,10.1 14.5,10.1 3.1,0 5.7,-0.7 7.7,-2.1 2,-1.4 3,-3.2 3,-5.5 0,-3.5 -2.4,-5.9 -7.3,-7.1 l -10.8,-2.6 c -3.4,-0.9 -6.7,-2.5 -9.7,-5 -3.1,-2.4 -4.6,-5.7 -4.6,-9.9 0,-4.7 2.1,-8.6 6.3,-11.5 4.2,-3 9.2,-4.4 14.9,-4.4 4.7,0 9,1.1 12.7,3.2 3.7,2.2 6.4,5.2 8,9.2 l -8.8,3.6 c -2,-4.7 -6.1,-7.1 -12.2,-7.1 -3,0 -5.5,0.6 -7.5,1.9 -2,1.2 -3.1,2.9 -3.1,5 0,3.1 2.4,5.1 7.1,6.2 l 10.6,2.5 c 5,1.2 8.8,3.2 11.2,6 2.4,2.8 3.6,6.1 3.6,9.6 0,4.8 -2,8.8 -5.9,12 -4,3.3 -9.1,4.9 -15.3,4.9 z"
       inkscape:connector-curvature="0"
       style="fill:#ffffff" />
    <path
       id="XMLID_29_"
       class="st0"
       d="m 830.9,88.7 c -5.6,0 -9.9,-1.5 -12.9,-4.5 -3,-3 -4.4,-7.2 -4.4,-12.7 V 43.4 h -9.4 v -9.2 h 9.4 V 17.8 h 10.1 v 16.4 h 13.1 v 9.2 h -13.1 v 27.3 c 0,5.8 2.4,8.8 7.2,8.8 1.8,0 3.4,-0.3 4.6,-0.9 l 3.5,8.6 c -2.2,1 -4.9,1.5 -8.1,1.5 z"
       inkscape:connector-curvature="0"
       style="fill:#ffffff" />
  </g>
  <g
     id="XMLID_261_">
    <path
       id="XMLID_259_"
       class="st0"
       d="M32.3 0H0l92.3 160 16.2-28z" />
    <path
       id="XMLID_258_"
       class="st0"
       d="M120.9 91L68.3 0H36.1l74.3 128.8 10.5-18.2c1.7-2.8 2.8-6.2 2.8-9.8-.1-3.6-1.1-6.9-2.8-9.8z" />
    <path
       id="XMLID_257_"
       class="st0"
       d="M56.3 104.1L.9 200h32.3l39.3-68z" />
    <path
       id="XMLID_256_"
       class="st0"
       d="M74.3 135.3L37 200h32.2l21.3-36.8z" />
  </g>
</svg>
